<svg xmlns="http://www.w3.org/2000/svg" viewBox="0 0 571.68 95.39"><defs><style>.cls-1,.cls-2{fill:#fff;}.cls-2{font-size:44.32px;font-family:Didot-Bold, Didot;font-weight:700;}</style></defs><title>movies-nextjs</title><g id="Capa_2" data-name="Capa 2"><g id="Capa_1-2" data-name="Capa 1"><path class="cls-1" d="M165.86,0H150.38V82.36h15.48V21.12l51.25,60.56,18.91.68Z"/><polygon class="cls-1" points="309.29 12.54 309.29 0 250.81 0 236.02 0 236.02 82.36 250.81 82.36 309.29 82.36 309.29 69.83 250.81 69.83 250.81 47.45 297.6 47.45 297.6 34.91 250.81 34.91 250.81 12.54 309.29 12.54"/><polygon class="cls-1" points="431.36 0 431.36 12.54 460.6 12.54 460.6 82.36 474.72 82.36 474.72 12.54 502.57 12.54 502.57 0 431.36 0"/><path class="cls-1" d="M413.55,1.41l-17.66-.22L370.33,31.36,344.76,1.19l-17.66.22,66.39,80.77,20.06.18L379.77,42.5Z"/><path class="cls-1" d="M327.1,82.36l20.06-.18,18.16-22.1L355.6,48.74Z"/><circle class="cls-1" cx="507.69" cy="78.25" r="4.12"/><path class="cls-1" d="M532.06,46.05h6.42V71.2a11.79,11.79,0,0,1-1.46,6A9.75,9.75,0,0,1,533,81a13,13,0,0,1-6,1.34,13.64,13.64,0,0,1-5.65-1.13,9.13,9.13,0,0,1-4-3.34,9.79,9.79,0,0,1-1.47-5.52h6.45a5,5,0,0,0,.63,2.5,4.09,4.09,0,0,0,1.72,1.6,5.43,5.43,0,0,0,2.54.56,5.05,5.05,0,0,0,2.63-.65,4.14,4.14,0,0,0,1.65-2,8.2,8.2,0,0,0,.59-3.18Z"/><path class="cls-1" d="M565,55.89a4.82,4.82,0,0,0-2.05-3.57,8,8,0,0,0-4.69-1.27,8.92,8.92,0,0,0-3.48.61,5.25,5.25,0,0,0-2.22,1.66,4,4,0,0,0-.78,2.39,3.52,3.52,0,0,0,.52,1.94,4.43,4.43,0,0,0,1.4,1.39,9.72,9.72,0,0,0,2,1,21.71,21.71,0,0,0,2.18.65l3.36.84a22.51,22.51,0,0,1,3.9,1.27,13.86,13.86,0,0,1,3.37,2,8.6,8.6,0,0,1,3.24,7,9.68,9.68,0,0,1-1.6,5.53A10.54,10.54,0,0,1,565.44,81a18.12,18.12,0,0,1-7.33,1.33,18.62,18.62,0,0,1-7.24-1.29,10.76,10.76,0,0,1-4.78-3.77,11.09,11.09,0,0,1-1.86-6h6.37a5.41,5.41,0,0,0,1.16,3.11,6,6,0,0,0,2.64,1.86,10.56,10.56,0,0,0,3.66.61,10,10,0,0,0,3.71-.64,6,6,0,0,0,2.51-1.78,4.31,4.31,0,0,0,.92-2.68,3.42,3.42,0,0,0-.82-2.32,6.07,6.07,0,0,0-2.24-1.53,21.33,21.33,0,0,0-3.36-1.11l-4.07-1a16.33,16.33,0,0,1-7-3.45,7.88,7.88,0,0,1-2.56-6.16,9.16,9.16,0,0,1,1.72-5.53,11.29,11.29,0,0,1,4.69-3.7,16.4,16.4,0,0,1,6.73-1.32A15.9,15.9,0,0,1,565,46.88a11.08,11.08,0,0,1,4.51,3.65,9.37,9.37,0,0,1,1.69,5.36Z"/><text class="cls-2" transform="translate(0 82.36)">movies</text></g></g></svg>